<svg xmlns="http://www.w3.org/2000/svg" version="1.1" xmlns:xlink="http://www.w3.org/1999/xlink" xmlns:svgjs="http://svgjs.dev/svgjs" width="2000" height="1047" viewBox="0 0 2000 1047"><g transform="matrix(1,0,0,1,-0.13807407283388784,0)"><svg viewBox="0 0 382 200" data-background-color="#add8e6" preserveAspectRatio="xMidYMid meet" height="1047" width="2000" xmlns="http://www.w3.org/2000/svg" xmlns:xlink="http://www.w3.org/1999/xlink"><g id="tight-bounds" transform="matrix(1,0,0,1,0.026372147911274624,0)"><svg viewBox="0 0 381.94725570417745 200" height="200" width="381.94725570417745"><g><svg viewBox="0 0 383.8569919826982 200.99999999999994" height="200" width="381.94725570417745"><g><rect width="8.460856864263645" height="200.99999999999994" x="148.6128976313079" y="0" fill="#0766ad" opacity="1" stroke-width="0" stroke="transparent" fill-opacity="1" class="rect-qz-0" data-fill-palette-color="primary" rx="1%" id="qz-0" data-palette-color="#0766ad"></rect></g><g transform="matrix(1,0,0,1,179.2225944543769,0.4999999999999858)"><svg viewBox="0 0 204.63439752832127 199.99999999999997" height="199.99999999999997" width="204.63439752832127"><g id="textblocktransform"><svg viewBox="0 0 204.63439752832127 199.99999999999997" height="199.99999999999997" width="204.63439752832127" id="textblock"><g><svg viewBox="0 0 204.63439752832127 199.99999999999997" height="199.99999999999997" width="204.63439752832127"><g transform="matrix(1,0,0,1,0,0)"><svg width="204.63439752832127" viewBox="0.5500000000000016 -43 99.75 91.95" height="199.99999999999997" data-palette-color="#0766ad"><svg></svg><svg></svg><g class="wordmark-text-0" data-fill-palette-color="primary" id="text-0"><path d="M17.6 0h-11.75l-5.3-43h8.2l3.15 29.25 2.8-29.25h8.2zM31.85 0.4c-2.833 0-4.773-0.943-5.82-2.83-1.053-1.88-1.58-4.57-1.58-8.07v0c0-2.867 0.377-5.067 1.13-6.6 0.747-1.533 1.787-2.66 3.12-3.38 1.333-0.713 3.367-1.503 6.1-2.37v0l2.4-0.8v-0.1-3.65c0-0.967-0.19-1.71-0.57-2.23-0.387-0.513-0.847-0.77-1.38-0.77v0c-0.467 0-0.873 0.217-1.22 0.65-0.353 0.433-0.53 1.017-0.53 1.75v0 2.2h-8.5v-1.2c0-3.6 0.843-6.167 2.53-7.7 1.68-1.533 4.42-2.3 8.22-2.3v0c3.033 0 5.5 0.79 7.4 2.37 1.9 1.587 2.85 3.83 2.85 6.73v0 27.9h-8.7v-4.35c-0.433 1.5-1.123 2.667-2.07 3.5-0.953 0.833-2.08 1.25-3.38 1.25zM35.3-6.4c0.667 0 1.143-0.277 1.43-0.83 0.28-0.547 0.42-1.22 0.42-2.02v0-10.2c-1.3 0.5-2.257 1.133-2.87 1.9-0.62 0.767-0.93 1.833-0.93 3.2v0 4.7c0 2.167 0.65 3.25 1.95 3.25zM49.35 0v-36.6h8.75v4.65c0.367-1.5 1-2.717 1.9-3.65 0.9-0.933 2.1-1.4 3.6-1.4v0c2.467 0 4.293 0.757 5.48 2.27 1.18 1.52 1.77 3.68 1.77 6.48v0 28.25h-8.6v-27.35c0-0.8-0.157-1.483-0.47-2.05-0.32-0.567-0.813-0.85-1.48-0.85v0c-0.9 0-1.49 0.407-1.77 1.22-0.287 0.82-0.43 1.913-0.43 3.28v0 25.75z" fill="#0766ad" fill-rule="nonzero" stroke="none" stroke-width="1" stroke-linecap="butt" stroke-linejoin="miter" stroke-miterlimit="10" stroke-dasharray="" stroke-dashoffset="0" font-family="none" font-weight="none" font-size="none" text-anchor="none" style="mix-blend-mode: normal" data-fill-palette-color="primary" opacity="1"></path><path transform="translate(0,48.55)" d="M11.45 0.4c-1.967 0-3.75-0.383-5.35-1.15-1.6-0.767-2.857-1.893-3.77-3.38-0.92-1.48-1.38-3.27-1.38-5.37v0-10.75h8.45v10.25c0 0.767 0.16 1.373 0.48 1.82 0.313 0.453 0.803 0.68 1.47 0.68v0c0.633 0 1.11-0.21 1.43-0.63 0.313-0.413 0.47-1.003 0.47-1.77v0-33.05h8.65v32.2c0 2.233-0.44 4.19-1.32 5.87-0.887 1.687-2.12 2.987-3.7 3.9-1.587 0.92-3.397 1.38-5.43 1.38zM35.3 0.4c-3.767 0-6.467-1.033-8.1-3.1-1.633-2.067-2.45-5.15-2.45-9.25v0-14.7c0-3.367 0.967-5.933 2.9-7.7 1.933-1.767 4.633-2.65 8.1-2.65v0c7.033 0 10.55 3.45 10.55 10.35v0 2.65c0 2.667-0.033 4.833-0.1 6.5v0h-12.7v7.1c0 1.267 0.133 2.257 0.4 2.97 0.267 0.72 0.833 1.08 1.7 1.08v0c0.667 0 1.143-0.2 1.43-0.6 0.28-0.4 0.447-0.86 0.5-1.38 0.047-0.513 0.07-1.27 0.07-2.27v0-3.55h8.7v2.1c0 4.267-0.823 7.407-2.47 9.42-1.653 2.02-4.497 3.03-8.53 3.03zM33.45-21.85h4.15v-4.7c0-2.633-0.65-3.95-1.95-3.95v0c-1.467 0-2.2 1.317-2.2 3.95v0zM49.45 0v-36.6h8.75v4.05c0.433-1.433 1.193-2.543 2.28-3.33 1.08-0.78 2.42-1.17 4.02-1.17v0 7.3c-1.233 0-2.59 0.173-4.07 0.52-1.487 0.353-2.23 0.763-2.23 1.23v0 28zM75.35-39.05h-8.75v-6.1h8.75zM75.35 0h-8.75v-36.6h8.75zM89.8 0.4c-4 0-6.883-1.017-8.65-3.05-1.767-2.033-2.65-5.15-2.65-9.35v0-11.3c0-3.167 0.343-5.743 1.03-7.73 0.68-1.98 1.83-3.47 3.45-4.47 1.613-1 3.853-1.5 6.72-1.5v0c3.133 0 5.683 0.817 7.65 2.45 1.967 1.633 2.95 3.917 2.95 6.85v0 5.6h-8.9v-5.15c0-0.967-0.133-1.71-0.4-2.23-0.267-0.513-0.783-0.77-1.55-0.77v0c-1.433 0-2.15 1.017-2.15 3.05v0 17.75c0 0.833 0.177 1.54 0.53 2.12 0.347 0.587 0.87 0.88 1.57 0.88v0c0.7 0 1.227-0.283 1.58-0.85 0.347-0.567 0.503-1.3 0.47-2.2v0l-0.05-6.15h8.9v6.4c0 3-0.973 5.357-2.92 7.07-1.953 1.72-4.48 2.58-7.58 2.58z" fill="#0766ad" fill-rule="nonzero" stroke="none" stroke-width="1" stroke-linecap="butt" stroke-linejoin="miter" stroke-miterlimit="10" stroke-dasharray="" stroke-dashoffset="0" font-family="none" font-weight="none" font-size="none" text-anchor="none" style="mix-blend-mode: normal" data-fill-palette-color="primary" opacity="1"></path></g></svg></g></svg></g></svg></g></svg></g><g transform="matrix(1,0,0,1,0,37.267971163748676)"><svg viewBox="0 0 126.46405767250255 126.46405767250259" height="126.46405767250259" width="126.46405767250255"><g><svg xmlns="http://www.w3.org/2000/svg" xmlns:xlink="http://www.w3.org/1999/xlink" version="1.1" x="0" y="0" viewBox="14.189 14.189 71.62199999999999 71.62200000000001" enable-background="new 0 0 100 100" xml:space="preserve" height="126.46405767250259" width="126.46405767250255" class="icon-icon-0" data-fill-palette-color="accent" id="icon-0"><g fill="#0766ad" data-fill-palette-color="accent"><path d="M77.284 74.943c0 1.293-1.047 2.341-2.342 2.341H25.057c-1.292 0-2.34-1.048-2.34-2.341V25.056c0-1.292 1.048-2.34 2.34-2.34h49.885c1.295 0 2.342 1.048 2.342 2.34V74.943z" fill="#0766ad" data-fill-palette-color="accent"></path><g fill="#0766ad" data-fill-palette-color="accent"><g fill="#0766ad" data-fill-palette-color="accent"><rect x="32.91" y="14.189" width="6.101" height="6.102" fill="#0766ad" data-fill-palette-color="accent"></rect><rect x="42.269" y="14.189" width="6.101" height="6.102" fill="#0766ad" data-fill-palette-color="accent"></rect><rect x="51.63" y="14.189" width="6.101" height="6.102" fill="#0766ad" data-fill-palette-color="accent"></rect><rect x="60.989" y="14.189" width="6.101" height="6.102" fill="#0766ad" data-fill-palette-color="accent"></rect></g><g fill="#0766ad" data-fill-palette-color="accent"><rect x="32.91" y="79.709" width="6.101" height="6.102" fill="#0766ad" data-fill-palette-color="accent"></rect><rect x="42.269" y="79.709" width="6.101" height="6.102" fill="#0766ad" data-fill-palette-color="accent"></rect><rect x="51.63" y="79.709" width="6.101" height="6.102" fill="#0766ad" data-fill-palette-color="accent"></rect><rect x="60.989" y="79.709" width="6.101" height="6.102" fill="#0766ad" data-fill-palette-color="accent"></rect></g></g><g fill="#0766ad" data-fill-palette-color="accent"><g fill="#0766ad" data-fill-palette-color="accent"><rect x="79.708" y="32.91" width="6.103" height="6.101" fill="#0766ad" data-fill-palette-color="accent"></rect><rect x="79.708" y="42.269" width="6.103" height="6.102" fill="#0766ad" data-fill-palette-color="accent"></rect><rect x="79.708" y="51.629" width="6.103" height="6.102" fill="#0766ad" data-fill-palette-color="accent"></rect><rect x="79.708" y="60.989" width="6.103" height="6.101" fill="#0766ad" data-fill-palette-color="accent"></rect></g><g fill="#0766ad" data-fill-palette-color="accent"><rect x="14.189" y="32.91" width="6.102" height="6.101" fill="#0766ad" data-fill-palette-color="accent"></rect><rect x="14.189" y="42.269" width="6.102" height="6.102" fill="#0766ad" data-fill-palette-color="accent"></rect><rect x="14.189" y="51.629" width="6.102" height="6.102" fill="#0766ad" data-fill-palette-color="accent"></rect><rect x="14.189" y="60.989" width="6.102" height="6.101" fill="#0766ad" data-fill-palette-color="accent"></rect></g></g></g></svg></g></svg></g></svg></g><defs></defs></svg><rect width="381.94725570417745" height="200" fill="none" stroke="none" visibility="hidden"></rect></g></svg></g></svg>